<svg width="42" height="40" viewBox="0 0 42 40" fill="none" xmlns="http://www.w3.org/2000/svg">
<path d="M2.1973 20.0369C2.1993 28.0249 8.36821 34.8263 16.7468 36.0782V24.7296H12.3718V20.0369H16.752V16.4645C16.5562 14.7718 17.1702 13.0848 18.4276 11.861C19.6849 10.6372 21.4553 10.0035 23.2585 10.1318C24.5528 10.1515 25.8438 10.26 27.1213 10.4566V14.4494H24.9416C24.1912 14.3569 23.4367 14.5903 22.8908 15.0838C22.3448 15.5773 22.0665 16.2776 22.1341 16.9874V20.0369H26.9127L26.1487 24.7312H22.1341V36.0782C31.1954 34.7298 37.5495 26.9376 36.5931 18.3466C35.6367 9.75568 27.7047 3.37349 18.5434 3.82369C9.38214 4.27388 2.19875 11.3988 2.1973 20.0369Z" fill="white"/>
</svg>
