<svg width="41" height="40" viewBox="0 0 41 40" fill="none" xmlns="http://www.w3.org/2000/svg">
<path d="M36.5001 17.0002H20.8334V23.1668H30.0001C29.8334 24.6668 28.8334 27.0002 26.6667 28.5002C25.3334 29.5002 23.3334 30.1668 20.8334 30.1668C16.5001 30.1668 12.6667 27.3335 11.3334 23.1668C11.0001 22.1668 10.8334 21.0002 10.8334 19.8335C10.8334 18.6668 11.0001 17.5002 11.3334 16.5002C11.5001 16.1668 11.5001 15.8335 11.6667 15.6668C13.1667 12.1668 16.6667 9.66683 20.8334 9.66683C24.0001 9.66683 26.0001 11.0002 27.3334 12.1668L32.0001 7.50016C29.1667 5.00016 25.3334 3.3335 20.8334 3.3335C14.3334 3.3335 8.66675 7.00016 6.00008 12.5002C4.83341 14.8335 4.16675 17.3335 4.16675 20.0002C4.16675 22.6668 4.83341 25.1668 6.00008 27.5002C8.66675 33.0002 14.3334 36.6668 20.8334 36.6668C25.3334 36.6668 29.1667 35.1668 31.8334 32.6668C35.0001 29.8335 36.8334 25.5002 36.8334 20.3335C36.8334 19.0002 36.6667 18.0002 36.5001 17.0002Z" stroke="white" stroke-width="1.5" stroke-miterlimit="10" stroke-linecap="round" stroke-linejoin="round"/>
</svg>
