<svg width="42" height="36" viewBox="0 0 42 36" fill="none" xmlns="http://www.w3.org/2000/svg">
<path d="M40.7491 0.661828C40.0431 0.107567 38.9342 0.0282619 37.7877 0.454416H37.7858C36.58 0.902357 3.65286 13.978 2.31243 14.5123C2.06863 14.5907 -0.0606203 15.3262 0.158706 16.9646C0.354499 18.4418 2.06581 19.0535 2.27478 19.1241L10.6459 21.7778C11.2013 23.4894 13.2486 29.8041 13.7014 31.1532C13.9838 31.9942 14.4441 33.0992 15.2508 33.3267C15.9587 33.5794 16.6628 33.3484 17.1184 33.0173L22.2363 28.6224L30.4982 34.5877L30.6949 34.6966C31.2559 34.9267 31.7934 35.0417 32.3064 35.0417C32.7027 35.0417 33.083 34.9729 33.4464 34.8352C34.6842 34.3646 35.1793 33.2726 35.2311 33.1489L41.4024 3.45144C41.7789 1.86534 41.2555 1.05835 40.7491 0.661828ZM18.0286 22.8393L15.2047 29.8111L12.3807 21.0963L34.0309 6.28113L18.0286 22.8393Z" fill="white"/>
</svg>
