<svg width="43" height="40" viewBox="0 0 43 40" fill="none" xmlns="http://www.w3.org/2000/svg">
<path d="M34.672 10.5423C36.1501 9.67698 37.256 8.31445 37.7833 6.7091C36.3945 7.51611 34.8749 8.08459 33.2903 8.38996C31.0934 6.11414 27.6127 5.56031 24.793 7.03794C21.9734 8.51556 20.5129 11.6588 21.2276 14.7113C15.5386 14.4316 10.2383 11.8 6.64557 7.47122C4.77061 10.6382 5.72875 14.6868 8.83519 16.7232C7.71187 16.6878 6.61346 16.39 5.63155 15.8545C5.63155 15.8836 5.63155 15.9126 5.63155 15.9417C5.6322 19.2407 8.00645 22.0824 11.3084 22.7362C10.2665 23.0138 9.17354 23.0547 8.11301 22.8557C9.04162 25.6769 11.6968 27.6097 14.7231 27.6673C12.2166 29.5938 9.12122 30.6386 5.93493 30.6335C5.37017 30.6343 4.80585 30.6025 4.2449 30.5382C7.48051 32.5743 11.2464 33.6551 15.0924 33.6513C20.4432 33.6873 25.5855 31.6215 29.369 27.916C33.1525 24.2106 35.2616 19.1746 35.2244 13.9347C35.2244 13.6344 35.2172 13.3357 35.203 13.0386C36.5887 12.0578 37.7847 10.8429 38.7347 9.45079C37.4437 10.0112 36.0743 10.3791 34.672 10.5423Z" fill="white"/>
</svg>
