<svg width="43" height="29" viewBox="0 0 43 29" fill="none" xmlns="http://www.w3.org/2000/svg">
<path d="M41.0488 4.95415C40.6662 2.98237 38.8433 1.54644 36.7277 1.09815C33.5619 0.47124 27.703 0.0229492 21.3639 0.0229492C15.0286 0.0229492 9.07588 0.47124 5.90634 1.09815C3.79457 1.54644 1.96787 2.89131 1.58527 4.95415C1.19893 7.19561 0.81633 10.3336 0.81633 14.3683C0.81633 18.4029 1.19893 21.5409 1.67904 23.7824C2.06539 25.7542 3.88834 27.1901 6.00012 27.6384C9.36095 28.2653 15.1224 28.7136 21.4614 28.7136C27.8005 28.7136 33.5619 28.2653 36.9228 27.6384C39.0345 27.1901 40.8575 25.8452 41.2439 23.7824C41.6264 21.5409 42.1066 18.3118 42.2041 14.3683C42.009 10.3336 41.5289 7.19561 41.0488 4.95415ZM16.1801 20.6443V8.09219L27.8943 14.3683L16.1801 20.6443Z" fill="white"/>
</svg>
